<?xml version="1.0" encoding="UTF-8" standalone="no"?>
<!-- Created with Inkscape (http://www.inkscape.org/) -->

<svg
   width="210mm"
   height="297mm"
   viewBox="0 0 210 297"
   version="1.1"
   id="svg1534"
   inkscape:version="1.2.2 (b0a8486541, 2022-12-01)"
   sodipodi:docname="fairpub_1.svg"
   xmlns:inkscape="http://www.inkscape.org/namespaces/inkscape"
   xmlns:sodipodi="http://sodipodi.sourceforge.net/DTD/sodipodi-0.dtd"
   xmlns="http://www.w3.org/2000/svg"
   xmlns:svg="http://www.w3.org/2000/svg">
  <sodipodi:namedview
     id="namedview1536"
     pagecolor="#ffffff"
     bordercolor="#000000"
     borderopacity="0.25"
     inkscape:showpageshadow="2"
     inkscape:pageopacity="0.0"
     inkscape:pagecheckerboard="0"
     inkscape:deskcolor="#d1d1d1"
     inkscape:document-units="mm"
     showgrid="false"
     inkscape:zoom="0.89263468"
     inkscape:cx="399.37951"
     inkscape:cy="341.68513"
     inkscape:window-width="1912"
     inkscape:window-height="987"
     inkscape:window-x="26"
     inkscape:window-y="23"
     inkscape:window-maximized="0"
     inkscape:current-layer="layer1" />
  <defs
     id="defs1531" />
  <g
     inkscape:label="Layer 1"
     inkscape:groupmode="layer"
     id="layer1">
    <g
       stroke="none"
       stroke-width="1"
       fill="none"
       fill-rule="evenodd"
       id="g1366"
       transform="matrix(0.43296808,0,0,0.43296808,13.161985,9.9695692)"
       style="fill:#7b16ef;fill-opacity:1">
      <g
         transform="translate(-7,-18)"
         fill="#000000"
         id="g1364"
         style="fill:#7b16ef;fill-opacity:1">
        <path
           d="M 51.771693,106.77513 H 24.902326 V 69.852407 c 1.034448,0.334474 2.08471,0.577569 3.140074,0.732158 v 32.265475 h 19.803372 z m 21.848092,0 h 22.24272 V 84.528622 l -3.140074,3.140609 V 102.85004 H 77.544209 Z M 95.862505,62.780081 V 18.074907 H 24.902326 v 14.75593 c 1.024103,-0.330391 2.074653,-0.576273 3.140074,-0.734536 V 22 h 64.680031 v 43.920494 z m -16.96812,16.969946 h -40.78698 c -1.387321,0 -2.475001,-1.08768 -2.475001,-2.475001 0,-1.387321 1.08768,-2.475001 2.475001,-2.475001 h 44.550021 c 0.353097,0 0.686783,0.07046 0.988067,0.198384 z m -34.409776,9.900005 h -6.377204 c -1.387321,0 -2.475001,-1.087681 -2.475001,-2.475001 0,-1.387321 1.08768,-2.475002 2.475001,-2.475002 h 35.837511 l -4.94947,4.950003 h -12.59923 l -3.100148,-3.098795 c -1.574109,-1.574108 -4.144863,-1.574108 -5.716291,0.0014 z m 2.315764,-49.500024 h 35.857053 c 1.387321,0 2.475001,-1.08768 2.475001,-2.475001 0,-1.38732 -1.08768,-2.475001 -2.475001,-2.475001 H 41.749118 c 2.023501,1.359343 3.717315,3.046898 5.051255,4.950002 z m 3.491146,9.900005 h 32.365907 c 1.387321,0 2.475001,-1.08768 2.475001,-2.475001 0,-1.387321 -1.08768,-2.475001 -2.475001,-2.475001 H 49.304351 c 0.539916,1.597542 0.872949,3.262384 0.987168,4.950002 z m -1.964489,9.900005 h 34.330396 c 1.387321,0 2.475001,-1.087681 2.475001,-2.475001 0,-1.387321 -1.08768,-2.475001 -2.475001,-2.475001 h -32.665 c -0.322023,1.68516 -0.87321,3.349881 -1.665396,4.950002 z m -3.494503,4.950002 h 37.824899 c 1.387321,0 2.475001,1.087681 2.475001,2.475001 0,1.387321 -1.08768,2.475001 -2.475001,2.475001 H 38.107405 c -0.297609,0 -0.581428,-0.05005 -0.843679,-0.142382 2.819938,-0.977694 5.424953,-2.602227 7.568801,-4.80762 z M 16.21568,42.80501 c 4.717615,-8.16744 15.202158,-10.976765 23.37213,-6.259829 8.170481,4.718835 10.976764,15.202158 6.261683,23.368918 -4.061497,7.034719 -12.403567,10.094546 -19.860648,7.789942 L 14.342519,87.876069 C 13.293957,89.689451 10.964965,90.318253 9.1433053,89.269194 7.3246424,88.218653 6.7048292,85.885216 7.7501801,84.06998 L 19.397184,63.900485 C 13.67601,58.596619 12.15233,49.84294 16.21568,42.80501 Z m 9.210072,18.889777 c 5.360599,3.094944 12.233346,1.253397 15.328289,-4.107202 3.095745,-5.357608 1.253396,-12.233346 -4.106401,-15.325297 -5.357808,-3.096493 -12.233546,-1.254145 -15.326099,4.103409 -3.098737,5.358408 -1.253396,12.233345 4.104211,15.32909 z m 81.409678,6.140437 c 0.54286,0.543332 0.54286,1.441904 -3.4e-4,1.985096 l -43.147015,43.15437 c -0.541498,0.54291 -1.438213,0.54291 -1.982079,-4.8e-4 L 44.289653,95.561539 c -0.542824,-0.541412 -0.542824,-1.438733 9.9e-5,-1.981655 l 5.158336,-5.162012 c 0.541178,-0.54259 1.438499,-0.54259 1.981421,3.32e-4 l 8.410333,8.406657 c 1.569628,1.575096 4.139776,1.575096 5.715075,-2.04e-4 L 99.695386,62.680513 c 0.541524,-0.54294 1.438244,-0.54294 1.982104,4.55e-4 z"
           id="path1362"
           style="fill:#7b16ef;fill-opacity:1" />
      </g>
    </g>
    <text
       x="55.473133"
       y="127.30051"
       fill="#000000"
       font-size="1.32292px"
       font-weight="bold"
       font-family="'Helvetica Neue', Helvetica, Arial-Unicode, Arial, Sans-serif"
       id="text1368"
       style="stroke-width:0.264583;fill:#000080;fill-opacity:1" />
    <text
       x="55.473133"
       y="128.62341"
       fill="#000000"
       font-size="1.32292px"
       font-weight="bold"
       font-family="'Helvetica Neue', Helvetica, Arial-Unicode, Arial, Sans-serif"
       id="text1370"
       style="stroke-width:0.264583;fill:#000080;fill-opacity:1" />
    <path
       d="m 8.0232414,2.0375664 c -1.715499,0 -3.240729,0.586048 -4.311897,1.653401 -1.071168,1.063418 -1.661151,2.580998 -1.661151,4.280897 V 51.696917 c 0,1.71162 0.586048,3.23298 1.657276,4.30415 1.071228,1.07116 2.592623,1.65727 4.304147,1.65727 H 25.690216 c 3.190255,2.99234 5.891575,6.56691 8.56567,9.62522 0.520075,0.5123 1.051794,0.39199 1.509731,-0.0699 2.786667,-3.31058 5.115298,-6.69885 8.181456,-9.55537 h 17.737221 c 1.703774,0 3.221354,-0.58993 4.292517,-1.65727 1.063418,-1.07117 1.649528,-2.59263 1.649528,-4.30415 V 7.9251574 c 0,-1.680526 -0.58994,-3.186381 -1.661153,-4.245925 -1.071213,-1.059543 -2.588742,-1.645551 -4.300267,-1.645551 z m 0,1.987141 H 61.664124 c 1.269088,0 2.235534,0.407523 2.903114,1.071168 0.667555,0.659791 1.071163,1.602927 1.071163,2.829391 V 51.697017 c 0,1.26908 -0.407523,2.23166 -1.075038,2.89924 -0.66756,0.66755 -1.622302,1.07504 -2.88364,1.07504 H 43.710008 c -0.500671,0 -0.632627,0.16689 -0.807276,0.27944 -3.06606,2.85652 -5.359816,5.81785 -7.956314,9.10518 -2.728444,-3.09328 -5.336567,-6.65613 -8.243555,-9.1168 -0.178535,-0.11644 -0.322136,-0.27168 -0.803391,-0.27168 H 8.0032804 c -1.269087,0 -2.231658,-0.40753 -2.899238,-1.07505 -0.659791,-0.66756 -1.067294,-1.62618 -1.067294,-2.89536 V 7.9719744 c 0,-1.253588 0.403638,-2.20841 1.075043,-2.872015 0.671436,-0.66756 1.633927,-1.075043 2.910864,-1.075043 z"
       id="path9"
       style="stroke-width:0.993571;fill:#7b16ef;fill-opacity:1" />
  </g>
</svg>
