<svg xmlns="http://www.w3.org/2000/svg" xmlns:xlink="http://www.w3.org/1999/xlink" viewBox="0 0 101 120" version="1.1" x="0px" y="0px"><title>Combined Shape</title><desc>Created with Sketch.</desc><g stroke="none" stroke-width="1" fill="none" fill-rule="evenodd"><g transform="translate(-7.000000, -18.000000)" fill="#000000"><path d="M51.7716932,106.775131 L24.902326,106.775131 L24.902326,69.8524074 C25.9367736,70.1868807 26.9870362,70.4299762 28.0424003,70.5845646 L28.0424003,102.850038 L47.8457721,102.850038 L51.7716932,106.775131 Z M73.619785,106.775131 L95.862505,106.775131 L95.862505,84.5286219 L92.7224307,87.6692311 L92.7224307,102.850038 L77.5442093,102.850038 L73.619785,106.775131 Z M95.862505,62.7800814 L95.862505,18.0749071 L24.902326,18.0749071 L24.902326,32.8308367 C25.9264295,32.5004459 26.9769788,32.2545645 28.0424003,32.0963008 L28.0424003,22 L92.7224307,22 L92.7224307,65.9204937 L95.862505,62.7800814 Z M78.8943854,79.7500272 L38.107405,79.7500272 C36.7200844,79.7500272 35.6324038,78.6623467 35.6324038,77.275026 C35.6324038,75.8877054 36.7200844,74.8000249 38.107405,74.8000249 L82.657426,74.8000249 C83.0105228,74.8000249 83.3442093,74.8704837 83.6454927,74.9984086 L78.8943854,79.7500272 Z M44.4846095,89.6500319 L38.107405,89.6500319 C36.7200844,89.6500319 35.6324038,88.5623513 35.6324038,87.1750307 C35.6324038,85.78771 36.7200844,84.7000295 38.107405,84.7000295 L73.9449158,84.7000295 L68.9954461,89.6500319 L56.3962161,89.6500319 L53.296068,86.5512374 C51.7219592,84.9771285 49.1512046,84.9771285 47.579777,86.5526592 L44.4846095,89.6500319 Z M46.8003732,40.1500085 L82.657426,40.1500085 C84.0447466,40.1500085 85.1324272,39.062328 85.1324272,37.6750074 C85.1324272,36.2876867 84.0447466,35.2000062 82.657426,35.2000062 L41.7491184,35.2000062 C43.7726189,36.559349 45.466433,38.2469035 46.8003732,40.1500085 Z M50.2915192,50.0500132 L82.657426,50.0500132 C84.0447466,50.0500132 85.1324272,48.9623327 85.1324272,47.575012 C85.1324272,46.1876914 84.0447466,45.1000109 82.657426,45.1000109 L49.3043507,45.1000109 C49.8442673,46.6975526 50.1773004,48.3623955 50.2915192,50.0500132 Z M48.3270302,59.9500179 L82.657426,59.9500179 C84.0447466,59.9500179 85.1324272,58.8623374 85.1324272,57.4750167 C85.1324272,56.0876961 84.0447466,55.0000155 82.657426,55.0000155 L49.9924257,55.0000155 C49.6704032,56.685176 49.1192158,58.3498975 48.3270302,59.9500179 Z M44.8325274,64.9000202 L82.657426,64.9000202 C84.0447466,64.9000202 85.1324272,65.9877007 85.1324272,67.3750214 C85.1324272,68.762342 84.0447466,69.8500225 82.657426,69.8500225 L38.107405,69.8500225 C37.8097962,69.8500225 37.5259766,69.7999685 37.2637257,69.70764 C40.0836645,68.7299461 42.6886785,67.1054128 44.8325274,64.9000202 Z M16.2156803,42.8050098 C20.9332947,34.6375703 31.4178378,31.8282454 39.5878101,36.5451811 C47.7582914,41.2640164 50.5645745,51.7473387 45.8494929,59.9140995 C41.7879962,66.9488182 33.4459257,70.0086446 25.9888448,67.7040409 L14.3425192,87.8760686 C13.2939568,89.6894508 10.9649645,90.318253 9.1433053,89.2691938 C7.32464239,88.218653 6.70482918,85.8852162 7.75018013,84.0699798 L19.3971844,63.900485 C13.6760101,58.5966194 12.1523295,49.8429399 16.2156803,42.8050098 Z M25.425752,61.6947872 C30.7863512,64.7897306 37.6590975,62.9481837 40.7540408,57.5875846 C43.8497859,52.2299775 42.0074373,45.3542392 36.6476399,42.2622879 C31.2898324,39.1657948 24.4140941,41.0081433 21.3215415,46.3656967 C18.2228044,51.7241055 20.068145,58.5990421 25.425752,61.6947872 Z M106.835426,67.835224 C107.378286,68.3785559 107.378286,69.2771277 106.835094,69.8203205 L63.688075,112.974691 C63.1465771,113.517601 62.2498624,113.517601 61.705996,112.974206 L44.2896532,95.561539 C43.7468293,95.0201274 43.7468293,94.1228065 44.2897517,93.5798841 L49.4480883,88.4178717 C49.989266,87.8752818 50.8865869,87.8752818 51.4295093,88.4182042 L59.8398423,96.8248615 C61.4094699,98.3999569 63.9796178,98.3999569 65.5549173,96.8246575 L99.6953862,62.6805127 C100.236913,62.1375731 101.133628,62.1375731 101.677494,62.6809678 L106.835426,67.835224 Z"/></g></g><text x="0" y="111" fill="#000000" font-size="5px" font-weight="bold" font-family="'Helvetica Neue', Helvetica, Arial-Unicode, Arial, Sans-serif">Created by John Salzarulo</text><text x="0" y="116" fill="#000000" font-size="5px" font-weight="bold" font-family="'Helvetica Neue', Helvetica, Arial-Unicode, Arial, Sans-serif">from the Noun Project</text></svg>