<?xml version="1.0" encoding="UTF-8" standalone="no"?>
<!-- Created with Inkscape (http://www.inkscape.org/) -->

<svg
   width="210mm"
   height="297mm"
   viewBox="0 0 210 297"
   version="1.1"
   id="svg1128"
   inkscape:version="1.2.2 (b0a8486541, 2022-12-01)"
   sodipodi:docname="drawing.svg"
   inkscape:export-filename="drawing.png"
   inkscape:export-xdpi="96"
   inkscape:export-ydpi="96"
   xmlns:inkscape="http://www.inkscape.org/namespaces/inkscape"
   xmlns:sodipodi="http://sodipodi.sourceforge.net/DTD/sodipodi-0.dtd"
   xmlns="http://www.w3.org/2000/svg"
   xmlns:svg="http://www.w3.org/2000/svg">
  <sodipodi:namedview
     id="namedview1130"
     pagecolor="#ffffff"
     bordercolor="#000000"
     borderopacity="0.25"
     inkscape:showpageshadow="2"
     inkscape:pageopacity="0.0"
     inkscape:pagecheckerboard="0"
     inkscape:deskcolor="#d1d1d1"
     inkscape:document-units="mm"
     showgrid="false"
     inkscape:zoom="0.89263468"
     inkscape:cx="397.69909"
     inkscape:cy="561.25984"
     inkscape:window-width="1497"
     inkscape:window-height="1205"
     inkscape:window-x="26"
     inkscape:window-y="23"
     inkscape:window-maximized="0"
     inkscape:current-layer="layer1" />
  <defs
     id="defs1125" />
  <g
     inkscape:label="Layer 1"
     inkscape:groupmode="layer"
     id="layer1">
    <g
       id="g216"
       transform="matrix(1.8907297,0,0,1.9393011,-54.693293,-93.296538)"
       inkscape:export-filename="g216.png"
       inkscape:export-xdpi="96"
       inkscape:export-ydpi="96">
      <path
         d="m 32.355217,66.608652 c -0.123565,0 -0.243427,0.04943 -0.331168,0.137158 -0.08774,0.08773 -0.135924,0.206356 -0.135924,0.329935 v 0.841506 c 0,1.497642 1.231955,2.715994 2.736999,2.715994 h 1.507511 v 0.804433 c 0,1.209716 0.997174,2.198254 2.211857,2.198254 h 6.222882 l -1.729956,4.240746 h -1.875754 l -0.0012,-0.0012 c -0.123565,0 -0.24219,0.04943 -0.3287,0.137159 -0.0865,0.08773 -0.135925,0.206356 -0.134688,0.329934 0,0.255783 0.207593,0.463363 0.463363,0.464628 h 11.62773 c 0.255783,-0.0012 0.463363,-0.208829 0.463363,-0.464628 0.0012,-0.123566 -0.04819,-0.24219 -0.134687,-0.329934 -0.0865,-0.08773 -0.205123,-0.137159 -0.328701,-0.137159 H 50.712356 L 48.9824,73.634698 h 6.222882 c 1.213418,0 2.211857,-0.988537 2.211857,-2.198254 v -0.804432 h 1.507511 c 1.503811,0 2.736999,-1.218384 2.736999,-2.715995 v -0.841506 l -0.0012,0.0012 c 0.0012,-0.25702 -0.206356,-0.465863 -0.463363,-0.467096 h -8.489085 c -0.25702,0.0012 -0.464628,0.210063 -0.463363,0.467096 v 0.841506 c 0,1.497642 1.231955,2.715994 2.736999,2.715994 h 1.507512 v 0.804433 c 0,0.703111 -0.568417,1.266561 -1.283865,1.266561 h -6.602198 l -0.468329,-1.146669 c -0.23972,-0.589422 -0.837774,-0.956398 -1.47417,-0.906987 -0.552347,0.04325 -1.037949,0.394181 -1.246791,0.906987 l -0.468329,1.146703 h -6.602165 c -0.715448,0 -1.281397,-0.56345 -1.281397,-1.266561 v -0.804433 h 1.505044 c 1.50381,0 2.736999,-1.218384 2.736999,-2.715994 v -0.841506 c 0.0012,-0.25702 -0.206356,-0.465863 -0.463363,-0.467096 z m 0.463363,0.930459 h 7.554956 v 0.378111 c 0,0.991005 -0.800699,1.785536 -1.80654,1.785536 h -3.943077 c -1.005841,0 -1.806541,-0.794531 -1.806541,-1.785536 z m 20.356595,0 h 7.554956 v 0.378111 c 0,0.991005 -0.8007,1.785536 -1.80654,1.785536 h -3.941813 c -1.005841,0 -1.80654,-0.794531 -1.80654,-1.785536 z m -6.398447,4.037028 c 0.219949,0 0.412718,0.129747 0.495502,0.331168 l 2.435503,5.968235 h -5.867008 l 2.435503,-5.966969 c 0.07538,-0.186586 0.252078,-0.313862 0.457194,-0.329935 0.01359,-0.0012 0.02842,-0.0012 0.04325,-0.0012 z"
         id="path201"
         style="stroke-width:0.316332" />
      <text
         x="0"
         y="122.5"
         font-size="5px"
         font-weight="bold"
         font-family="'Arbeit Regular', Helvetica, Arial-Unicode, Arial, Sans-serif"
         fill="#000000"
         id="text205" />
    </g>
    <g
       id="g659"
       transform="matrix(0.22992531,0,0,0.22992531,42.198886,8.2277366)">
      <path
         d="m 15,36.668 v 25 h 16.668 v -25 z"
         id="path629" />
      <path
         d="m 41.668,36.668 v 25 h 16.664 v -25 z"
         id="path631" />
      <path
         d="m 68.332,36.668 v 25 H 85 v -25 z"
         id="path633" />
      <path
         d="M 91.668,88.332 H 5 V 95 h 90 v -6.668 z"
         id="path635" />
      <path
         d="m 88.332,85 h 3.332 l 0.0039,-6.668 h -6.668 V 75 h 3.332 V 65 h -23.332 v 10 h 3.332 v 3.332 h -10 V 75 h 3.332 l 0.0039,-10 h -23.336 v 10 h 3.332 v 3.332 H 31.6677 V 75 h 3.332 V 65 h -23.332 v 10 h 3.332 v 3.332 H 8.3317 V 85 Z m -20,-16.668 H 85 v 3.332 l -16.668,0.0039 z m -26.664,0 h 16.664 v 3.332 l -16.664,0.0039 z m -26.668,0 h 16.668 v 3.332 L 15,71.667907 Z"
         id="path637" />
      <path
         d="m 31.668,33.332 h 60 V 20.516 L 50,4.883 8.332,20.516 V 33.332 Z M 50,13.332 c 2.6953,0 5.1289,1.625 6.1602,4.1172 1.0312,2.4922 0.46094,5.3594 -1.4453,7.2656 -1.90624,1.9062 -4.7734,2.4766 -7.2656,1.4453 -2.4922,-1.0312 -4.1172,-3.4648 -4.1172,-6.1602 0,-3.6836 2.9844,-6.668 6.668,-6.668 z"
         id="path639" />
    </g>
    <g
       id="g1058"
       transform="matrix(0.38232142,0,0,0.36043767,-94.152389,-135.36453)">
      <g
         data-name="browser window"
         id="g1042"
         transform="translate(230.78091,374.38304)">
        <path
           d="m 77.76,49.25 c -0.32,-0.36 -3.36,-3.56 -12.64,-3.56 -9.28,0 -12.31,3.2 -12.63,3.56 a 1.5,1.5 0 0 0 -0.37,1 V 55 a 1.54,1.54 0 0 0 0.24,0.81 c 0.12,0.19 3.06,4.61 12.76,4.61 9.7,0 12.65,-4.42 12.77,-4.6 a 1.54,1.54 0 0 0 0.24,-0.81 v -4.77 a 1.5,1.5 0 0 0 -0.37,-0.99 z m -3,4 c -1.69,1 -4.74,2.14 -9.66,2.14 -4.92,0 -8,-1.16 -9.65,-2.14 a 0.8018884,0.8018884 0 0 1 0.8,-1.39 c 1.52,0.88 4.29,1.93 8.85,1.93 4.56,0 7.34,-1 8.86,-1.93 a 0.8018884,0.8018884 0 0 1 0.8,1.39 z M 78.13,79 v 4.24 a 1.53,1.53 0 0 1 -0.24,0.8 c -0.12,0.19 -3.06,4.61 -12.77,4.61 -9.71,0 -12.64,-4.44 -12.76,-4.65 A 1.53,1.53 0 0 1 52.12,83.2 V 79 a 1.5,1.5 0 0 1 2.75,-0.83 c 0.08,0.1 2.44,3.25 10.25,3.25 7.81,0 10.22,-3.2 10.24,-3.23 A 1.5,1.5 0 0 1 78.13,79 Z m 0,-9.36 v 4.23 a 1.54,1.54 0 0 1 -0.24,0.81 c -0.12,0.19 -3.06,4.61 -12.77,4.61 -9.71,0 -12.64,-4.42 -12.76,-4.61 a 1.54,1.54 0 0 1 -0.24,-0.81 v -4.25 a 1.5,1.5 0 0 1 2.75,-0.83 C 55,68.89 57.31,72 65.12,72 c 7.81,0 10.24,-3.22 10.26,-3.26 a 1.52,1.52 0 0 1 1.69,-0.58 1.49,1.49 0 0 1 1.06,1.46 z m 0,-9.37 v 4.24 a 1.54,1.54 0 0 1 -0.24,0.81 c -0.12,0.19 -3.06,4.61 -12.77,4.61 -9.71,0 -12.64,-4.44 -12.76,-4.63 a 1.54,1.54 0 0 1 -0.24,-0.81 v -4.24 a 1.5,1.5 0 0 1 2.75,-0.83 c 0.08,0.1 2.44,3.25 10.25,3.25 7.81,0 10.22,-3.19 10.24,-3.22 a 1.5,1.5 0 0 1 2.77,0.8 z m -43.25,9.11 c 9.7,0 12.64,-4.42 12.76,-4.61 a 1.54,1.54 0 0 0 0.24,-0.81 v -4.78 a 1.48,1.48 0 0 0 -0.37,-1 c -0.32,-0.36 -3.36,-3.56 -12.63,-3.56 -9.27,0 -12.32,3.2 -12.64,3.56 a 1.48,1.48 0 0 0 -0.37,1 V 64 a 1.54,1.54 0 0 0 0.24,0.81 c 0.12,0.19 3.06,4.57 12.77,4.57 z m -10,-8.28 A 0.8,0.8 0 0 1 26,60.81 c 1.52,0.88 4.29,1.93 8.86,1.93 4.57,0 7.33,-1.05 8.85,-1.93 a 0.8,0.8 0 0 1 1.09,0.29 0.81,0.81 0 0 1 -0.29,1.1 c -1.69,1 -4.74,2.14 -9.65,2.14 -4.91,0 -8,-1.17 -9.66,-2.14 a 0.81,0.81 0 0 1 -0.27,-1.1 z m 23,17.46 v 4.24 a 1.54,1.54 0 0 1 -0.24,0.81 c -0.12,0.19 -3.06,4.61 -12.76,4.61 -9.7,0 -12.65,-4.42 -12.77,-4.61 A 1.54,1.54 0 0 1 21.87,82.8 v -4.24 a 1.5,1.5 0 0 1 2.75,-0.83 c 0.08,0.11 2.44,3.25 10.26,3.25 7.82,0 10.23,-3.22 10.25,-3.25 a 1.51,1.51 0 0 1 2.75,0.83 z m 0,-9.36 v 4.24 a 1.54,1.54 0 0 1 -0.24,0.81 c -0.12,0.19 -3.06,4.61 -12.76,4.61 -9.7,0 -12.65,-4.42 -12.77,-4.61 A 1.54,1.54 0 0 1 21.87,73.44 V 69.2 a 1.5,1.5 0 0 1 2.75,-0.83 c 0.08,0.1 2.44,3.25 10.26,3.25 7.82,0 10.23,-3.22 10.25,-3.25 a 1.51,1.51 0 0 1 2.75,0.83 z m 6.31,-43.88 a 1.51,1.51 0 0 1 0.18,-1.59 L 64,11.89 a 1.56,1.56 0 0 1 2.33,0 l 9.59,11.84 a 1.5,1.5 0 0 1 -1.17,2.44 h -3.67 v 10.34 a 1.5,1.5 0 0 1 -1.5,1.5 h -8.91 a 1.5,1.5 0 0 1 -1.5,-1.5 V 26.17 h -3.63 a 1.49,1.49 0 0 1 -1.35,-0.85 z"
           id="path1040" />
      </g>
    </g>
    <rect
       style="fill:none;stroke-width:0.264583;stroke:none"
       id="rect1367"
       width="67.472"
       height="60.447384"
       x="1.1752082"
       y="1.3396215" />
  </g>
</svg>
