<?xml version="1.0" encoding="UTF-8" standalone="no"?>
<!-- Created with Inkscape (http://www.inkscape.org/) -->

<svg
   width="210mm"
   height="297mm"
   viewBox="0 0 210 297"
   version="1.1"
   id="svg370"
   inkscape:version="1.2.2 (b0a8486541, 2022-12-01)"
   sodipodi:docname="fairpub_fair_cite.svg"
   xmlns:inkscape="http://www.inkscape.org/namespaces/inkscape"
   xmlns:sodipodi="http://sodipodi.sourceforge.net/DTD/sodipodi-0.dtd"
   xmlns="http://www.w3.org/2000/svg"
   xmlns:svg="http://www.w3.org/2000/svg">
  <sodipodi:namedview
     id="namedview372"
     pagecolor="#ffffff"
     bordercolor="#000000"
     borderopacity="0.25"
     inkscape:showpageshadow="2"
     inkscape:pageopacity="0.0"
     inkscape:pagecheckerboard="0"
     inkscape:deskcolor="#d1d1d1"
     inkscape:document-units="mm"
     showgrid="false"
     inkscape:zoom="1.897039"
     inkscape:cx="395.61653"
     inkscape:cy="204.00213"
     inkscape:window-width="2560"
     inkscape:window-height="1355"
     inkscape:window-x="0"
     inkscape:window-y="0"
     inkscape:window-maximized="1"
     inkscape:current-layer="layer1" />
  <defs
     id="defs367" />
  <g
     inkscape:label="Layer 1"
     inkscape:groupmode="layer"
     id="layer1">
    <g
       id="g216"
       transform="matrix(1.8907297,0,0,1.9393011,-46.710654,-88.876225)"
       inkscape:export-filename="g216.png"
       inkscape:export-xdpi="96"
       inkscape:export-ydpi="96">
      <path
         d="m 32.355217,66.608652 c -0.123565,0 -0.243427,0.04943 -0.331168,0.137158 -0.08774,0.08773 -0.135924,0.206356 -0.135924,0.329935 v 0.841506 c 0,1.497642 1.231955,2.715994 2.736999,2.715994 h 1.507511 v 0.804433 c 0,1.209716 0.997174,2.198254 2.211857,2.198254 h 6.222882 l -1.729956,4.240746 h -1.875754 l -0.0012,-0.0012 c -0.123565,0 -0.24219,0.04943 -0.3287,0.137159 -0.0865,0.08773 -0.135925,0.206356 -0.134688,0.329934 0,0.255783 0.207593,0.463363 0.463363,0.464628 h 11.62773 c 0.255783,-0.0012 0.463363,-0.208829 0.463363,-0.464628 0.0012,-0.123566 -0.04819,-0.24219 -0.134687,-0.329934 -0.0865,-0.08773 -0.205123,-0.137159 -0.328701,-0.137159 H 50.712356 L 48.9824,73.634698 h 6.222882 c 1.213418,0 2.211857,-0.988537 2.211857,-2.198254 v -0.804432 h 1.507511 c 1.503811,0 2.736999,-1.218384 2.736999,-2.715995 v -0.841506 l -0.0012,0.0012 c 0.0012,-0.25702 -0.206356,-0.465863 -0.463363,-0.467096 h -8.489085 c -0.25702,0.0012 -0.464628,0.210063 -0.463363,0.467096 v 0.841506 c 0,1.497642 1.231955,2.715994 2.736999,2.715994 h 1.507512 v 0.804433 c 0,0.703111 -0.568417,1.266561 -1.283865,1.266561 h -6.602198 l -0.468329,-1.146669 c -0.23972,-0.589422 -0.837774,-0.956398 -1.47417,-0.906987 -0.552347,0.04325 -1.037949,0.394181 -1.246791,0.906987 l -0.468329,1.146703 h -6.602165 c -0.715448,0 -1.281397,-0.56345 -1.281397,-1.266561 v -0.804433 h 1.505044 c 1.50381,0 2.736999,-1.218384 2.736999,-2.715994 v -0.841506 c 0.0012,-0.25702 -0.206356,-0.465863 -0.463363,-0.467096 z m 0.463363,0.930459 h 7.554956 v 0.378111 c 0,0.991005 -0.800699,1.785536 -1.80654,1.785536 h -3.943077 c -1.005841,0 -1.806541,-0.794531 -1.806541,-1.785536 z m 20.356595,0 h 7.554956 v 0.378111 c 0,0.991005 -0.8007,1.785536 -1.80654,1.785536 h -3.941813 c -1.005841,0 -1.80654,-0.794531 -1.80654,-1.785536 z m -6.398447,4.037028 c 0.219949,0 0.412718,0.129747 0.495502,0.331168 l 2.435503,5.968235 h -5.867008 l 2.435503,-5.966969 c 0.07538,-0.186586 0.252078,-0.313862 0.457194,-0.329935 0.01359,-0.0012 0.02842,-0.0012 0.04325,-0.0012 z"
         id="path201"
         style="stroke-width:0.316332" />
      <text
         x="0"
         y="122.5"
         font-size="5px"
         font-weight="bold"
         font-family="'Arbeit Regular', Helvetica, Arial-Unicode, Arial, Sans-serif"
         fill="#000000"
         id="text205" />
    </g>
    <g
       id="g659"
       transform="matrix(0.22992531,0,0,0.22992531,49.122991,14.764718)">
      <path
         d="m 15,36.668 v 25 h 16.668 v -25 z"
         id="path629" />
      <path
         d="m 41.668,36.668 v 25 h 16.664 v -25 z"
         id="path631" />
      <path
         d="m 68.332,36.668 v 25 H 85 v -25 z"
         id="path633" />
      <path
         d="M 91.668,88.332 H 5 V 95 h 90 v -6.668 z"
         id="path635" />
      <path
         d="m 88.332,85 h 3.332 l 0.0039,-6.668 h -6.668 V 75 h 3.332 V 65 h -23.332 v 10 h 3.332 v 3.332 h -10 V 75 h 3.332 l 0.0039,-10 h -23.336 v 10 h 3.332 v 3.332 H 31.6677 V 75 h 3.332 V 65 h -23.332 v 10 h 3.332 v 3.332 H 8.3317 V 85 Z m -20,-16.668 H 85 v 3.332 l -16.668,0.0039 z m -26.664,0 h 16.664 v 3.332 l -16.664,0.0039 z m -26.668,0 h 16.668 v 3.332 L 15,71.667907 Z"
         id="path637" />
      <path
         d="m 31.668,33.332 h 60 V 20.516 L 50,4.883 8.332,20.516 V 33.332 Z M 50,13.332 c 2.6953,0 5.1289,1.625 6.1602,4.1172 1.0312,2.4922 0.46094,5.3594 -1.4453,7.2656 -1.90624,1.9062 -4.7734,2.4766 -7.2656,1.4453 -2.4922,-1.0312 -4.1172,-3.4648 -4.1172,-6.1602 0,-3.6836 2.9844,-6.668 6.668,-6.668 z"
         id="path639" />
    </g>
    <rect
       style="fill:none;stroke:none;stroke-width:0.264583"
       id="rect1367"
       width="67.472"
       height="60.447384"
       x="9.1578188"
       y="5.7599339" />
    <path
       id="path1040"
       style="stroke-width:0.371218"
       d="m 29.605428,23.640934 c -3.547882,0 -4.706299,1.153369 -4.828646,1.283126 a 0.57348211,0.5406565 0 0 0 -0.141593,0.360702 v 1.71204 a 0.58877497,0.55507401 0 0 0 0.09198,0.291972 c 0.0459,0.06848 1.169796,1.661397 4.878255,1.661397 3.708459,0 4.835993,-1.592901 4.881873,-1.65778 a 0.58877497,0.55507401 0 0 0 0.09198,-0.291972 V 25.281144 A 0.57348211,0.5406565 0 0 0 34.437691,24.92406 c -0.122337,-0.129757 -1.284374,-1.283126 -4.832263,-1.283126 z m 3.509863,2.185913 a 0.30657965,0.28903131 0 0 1 0.1757,0.538986 c -0.646107,0.360428 -1.812326,0.771529 -3.693314,0.771529 -1.881011,0 -3.058367,-0.41831 -3.689181,-0.771529 a 0.30657965,0.28903131 0 0 1 0.305408,-0.500745 c 0.581117,0.317185 1.640402,0.695565 3.383773,0.695565 1.743348,0 2.806263,-0.360358 3.38739,-0.695565 a 0.30657965,0.28903131 0 0 1 0.130224,-0.03824 z M 18.04386,26.859859 c -3.544086,0 -4.70992,1.153368 -4.832263,1.283126 a 0.56583569,0.53344775 0 0 0 -0.141594,0.360185 v 1.737361 a 0.58877497,0.55507401 0 0 0 0.09147,0.291972 c 0.04588,0.06848 1.170085,1.647445 4.882389,1.647445 3.708469,0 4.832385,-1.593431 4.878255,-1.661914 a 0.58877497,0.55507401 0 0 0 0.09198,-0.291972 V 28.50317 a 0.56583569,0.53344775 0 0 0 -0.141593,-0.360185 c -0.12234,-0.129758 -1.284574,-1.283126 -4.828646,-1.283126 z m 7.179923,1.488281 a 0.57348211,0.5406565 0 0 0 -0.588594,0.540536 v 1.528589 a 0.58877497,0.55507401 0 0 0 0.09147,0.291972 c 0.04588,0.06848 1.166493,1.668632 4.878772,1.668632 3.712279,0 4.835973,-1.592918 4.881873,-1.661398 a 0.58877497,0.55507401 0 0 0 0.09198,-0.291971 v -1.528589 -0.0072 a 0.57348211,0.5406565 0 0 0 -1.059367,-0.288355 c -0.0076,0.01081 -0.928608,1.160653 -3.91449,1.160653 -2.985885,0 -3.888541,-1.134948 -3.919141,-1.170988 A 0.57348211,0.5406565 0 0 0 25.223783,28.34814 Z m -10.690303,0.7028 a 0.30585713,0.28835014 0 0 1 0.115238,0.03979 c 0.581128,0.317175 1.640199,0.695565 3.38739,0.695565 1.747201,0 2.802656,-0.37839 3.383773,-0.695565 a 0.30585713,0.28835014 0 0 1 0.416512,0.104386 0.30968034,0.29195451 0 0 1 -0.110587,0.396875 c -0.646124,0.360438 -1.812517,0.771013 -3.689698,0.771013 -1.877181,0 -3.058154,-0.421388 -3.692797,-0.771013 a 0.30968034,0.29195451 0 0 1 -0.103353,-0.396875 h -0.01912 A 0.30585713,0.28835014 0 0 1 14.53348,29.05094 Z m -0.874882,2.52336 a 0.57348211,0.5406565 0 0 0 -0.588595,0.540536 v 1.528072 a 0.58877497,0.55507401 0 0 0 0.09147,0.291972 c 0.04588,0.06848 1.173915,1.661914 4.882389,1.661914 3.708469,0 4.832355,-1.593444 4.878255,-1.661914 a 0.58877497,0.55507401 0 0 0 0.09198,-0.291972 v -1.528072 a 0.57730533,0.54426088 0 0 0 -1.051615,-0.299207 c -0.0076,0.01081 -0.928899,1.171505 -3.918624,1.171505 -2.989723,0 -3.892168,-1.135465 -3.922758,-1.171505 A 0.57348211,0.5406565 0 0 0 13.658598,31.5743 Z m 20.335193,0.141594 a 0.58112854,0.54786526 0 0 0 -0.466122,0.23306 c -0.0077,0.01442 -0.936359,1.175122 -3.922241,1.175122 -2.985885,0 -3.869441,-1.120995 -3.919141,-1.157035 a 0.57348211,0.5406565 0 0 0 -1.051098,0.299207 v 1.531689 a 0.58877497,0.55507401 0 0 0 0.09147,0.291972 c 0.04588,0.06848 1.166493,1.661914 4.878772,1.661914 3.712279,0 4.835973,-1.593434 4.881873,-1.661914 a 0.58877497,0.55507401 0 0 0 0.09198,-0.291972 v -1.524455 -0.0072 a 0.5696589,0.53705213 0 0 0 -0.405144,-0.526067 0.58112854,0.54786526 0 0 0 -0.18035,-0.02429 z m -20.335193,3.231844 a 0.57348211,0.5406565 0 0 0 -0.588595,0.540535 v 1.528589 a 0.58877497,0.55507401 0 0 0 0.09147,0.291972 c 0.04588,0.06848 1.173915,1.661397 4.882389,1.661397 3.708469,0 4.832355,-1.592917 4.878255,-1.661397 a 0.58877497,0.55507401 0 0 0 0.09198,-0.291972 v -1.528589 a 0.57730533,0.54426088 0 0 0 -1.051615,-0.29869 c -0.0076,0.01081 -0.928899,1.170988 -3.918624,1.170988 -2.989723,0 -3.892168,-1.131338 -3.922758,-1.170988 a 0.57348211,0.5406565 0 0 0 -0.462504,-0.241845 z m 20.380668,0.155029 a 0.57348211,0.5406565 0 0 0 -0.07286,5.17e-4 0.57348211,0.5406565 0 0 0 -0.446484,0.251664 c -0.0076,0.01081 -0.928608,1.16427 -3.91449,1.16427 -2.985885,0 -3.888541,-1.135465 -3.919141,-1.171505 a 0.57348211,0.5406565 0 0 0 -1.051098,0.299207 v 1.514119 a 0.58495176,0.55146964 0 0 0 0.09147,0.288355 c 0.04588,0.07569 1.166493,1.675866 4.878772,1.675866 3.712279,0 4.835973,-1.592917 4.881873,-1.661397 a 0.58495176,0.55146964 0 0 0 0.09198,-0.288354 V 35.64692 a 0.57348211,0.5406565 0 0 0 -0.540019,-0.544153 z" />
    <path
       d="m 12.161676,8.3356622 c -1.882123,0 -3.5554951,0.6429694 -4.7307055,1.8139918 -1.1752071,1.166706 -1.8224938,2.831685 -1.8224938,4.696692 v 47.971907 c 0,1.877858 0.6429697,3.546979 1.8182368,4.722183 1.1752764,1.175194 2.8444465,1.818218 4.7222025,1.818218 H 31.5445 c 3.500099,3.282962 6.463784,7.204701 9.397576,10.56004 0.570597,0.562057 1.153954,0.43007 1.656361,-0.0767 3.057322,-3.632112 5.612107,-7.349451 8.976059,-10.483403 h 19.459889 c 1.869251,0 3.534222,-0.647224 4.709423,-1.818228 1.166694,-1.175204 1.809721,-2.844435 1.809721,-4.722173 V 14.795102 c 0,-1.843752 -0.647227,-3.495867 -1.822481,-4.658323 C 74.555797,8.9743256 72.890886,8.3314002 71.013125,8.3314002 Z m 0,2.1801468 h 58.850579 c 1.392354,0 2.452658,0.447105 3.185072,1.175209 0.732397,0.723875 1.175204,1.758616 1.175204,3.104204 v 48.023131 c 0,1.392351 -0.447117,2.448405 -1.179454,3.180832 -0.732394,0.732384 -1.779858,1.179454 -3.163702,1.179454 H 51.314399 c -0.549287,0 -0.694057,0.183097 -0.885667,0.306577 -3.363839,3.133952 -5.880377,6.382884 -8.729059,9.989493 -2.993425,-3.393712 -5.854847,-7.302588 -9.044169,-10.002243 -0.19589,-0.12775 -0.35343,-0.298067 -0.881427,-0.298067 h -19.6343 c -1.392354,0 -2.4484167,-0.44711 -3.1808364,-1.179464 C 8.2350662,65.262538 7.7879765,64.210824 7.7879765,62.818363 V 14.846467 c 0,-1.375347 0.4428447,-2.422909 1.1794661,-3.150968 0.7366447,-0.732399 1.7926194,-1.17946 3.1935854,-1.17946 z"
       id="path9"
       style="stroke-width:1.09007"
       inkscape:export-filename="fairpub_fair_cite.png"
       inkscape:export-xdpi="96"
       inkscape:export-ydpi="96" />
  </g>
</svg>
